<svg viewBox="0 0 220 153" fill="none" xmlns="http://www.w3.org/2000/svg">
<g opacity="0.55">
<path d="M17.1495 20.7853L16.4472 23.2437L15.7449 20.7853C15.5634 20.1502 15.2231 19.5719 14.756 19.1049C14.289 18.6379 13.7107 18.2975 13.0757 18.116L10.6163 17.4129L13.0748 16.7106C13.7098 16.529 14.2882 16.1887 14.7552 15.7217C15.2222 15.2547 15.5625 14.6763 15.744 14.0413L16.4472 11.582L17.1495 14.0404C17.331 14.6755 17.6713 15.2538 18.1384 15.7208C18.6054 16.1878 19.1837 16.5282 19.8187 16.7097L22.2781 17.4129L19.8196 18.1151C19.1846 18.2967 18.6063 18.637 18.1392 19.104C17.6722 19.571 17.3319 20.1494 17.1504 20.7844L17.1495 20.7853ZM24.4454 14.5752L24.2217 15.4692L23.998 14.5752C23.8699 14.0626 23.6049 13.5944 23.2314 13.2207C22.8579 12.847 22.3898 12.5819 21.8773 12.4536L20.9823 12.2299L21.8773 12.0061C22.3898 11.8778 22.8579 11.6127 23.2314 11.239C23.6049 10.8653 23.8699 10.3972 23.998 9.88455L24.2217 8.99048L24.4454 9.88455C24.5736 10.3973 24.8387 10.8655 25.2124 11.2392C25.5861 11.6129 26.0543 11.878 26.567 12.0061L27.4611 12.2299L26.567 12.4536C26.0543 12.5817 25.5861 12.8468 25.2124 13.2205C24.8387 13.5942 24.5736 14.0624 24.4454 14.5752ZM23.2663 24.8133L22.926 25.8352L22.5856 24.8133C22.4902 24.5271 22.3294 24.267 22.1161 24.0536C21.9027 23.8402 21.6426 23.6795 21.3564 23.5841L20.3345 23.2437L21.3564 22.9034C21.6426 22.808 21.9027 22.6472 22.1161 22.4338C22.3294 22.2205 22.4902 21.9604 22.5856 21.6741L22.926 20.6522L23.2663 21.6741C23.3617 21.9604 23.5225 22.2205 23.7358 22.4338C23.9492 22.6472 24.2093 22.808 24.4955 22.9034L25.5175 23.2437L24.4955 23.5841C24.2093 23.6795 23.9492 23.8402 23.7358 24.0536C23.5225 24.267 23.3617 24.5271 23.2663 24.8133Z" stroke="#919EAB" stroke-opacity="0.43" stroke-width="1.5" stroke-linecap="round" stroke-linejoin="round"/>
<path d="M207.387 145.477L206.685 147.936L205.983 145.477C205.801 144.842 205.461 144.264 204.994 143.797C204.527 143.33 203.948 142.99 203.313 142.808L200.854 142.105L203.313 141.403C203.948 141.221 204.526 140.881 204.993 140.414C205.46 139.947 205.8 139.368 205.982 138.733L206.685 136.274L207.387 138.733C207.569 139.368 207.909 139.946 208.376 140.413C208.843 140.88 209.422 141.22 210.057 141.402L212.516 142.105L210.057 142.807C209.422 142.989 208.844 143.329 208.377 143.796C207.91 144.263 207.57 144.841 207.388 145.477H207.387ZM214.683 139.267L214.459 140.161L214.236 139.267C214.108 138.755 213.843 138.287 213.469 137.913C213.096 137.539 212.628 137.274 212.115 137.146L211.22 136.922L212.115 136.698C212.628 136.57 213.096 136.305 213.469 135.931C213.843 135.557 214.108 135.089 214.236 134.577L214.459 133.683L214.683 134.577C214.811 135.089 215.076 135.558 215.45 135.931C215.824 136.305 216.292 136.57 216.805 136.698L217.699 136.922L216.805 137.146C216.292 137.274 215.824 137.539 215.45 137.913C215.076 138.286 214.811 138.755 214.683 139.267ZM213.504 149.505L213.164 150.527L212.823 149.505C212.728 149.219 212.567 148.959 212.354 148.746C212.141 148.532 211.88 148.372 211.594 148.276L210.572 147.936L211.594 147.596C211.88 147.5 212.141 147.339 212.354 147.126C212.567 146.913 212.728 146.653 212.823 146.366L213.164 145.344L213.504 146.366C213.6 146.653 213.76 146.913 213.974 147.126C214.187 147.339 214.447 147.5 214.733 147.596L215.755 147.936L214.733 148.276C214.447 148.372 214.187 148.532 213.974 148.746C213.76 148.959 213.6 149.219 213.504 149.505Z" stroke="#919EAB" stroke-opacity="0.43" stroke-width="1.5" stroke-linecap="round" stroke-linejoin="round"/>
<path d="M17.6643 138.624L16.2304 143.644L14.7966 138.624C14.426 137.328 13.7312 136.147 12.7777 135.194C11.8241 134.24 10.6434 133.545 9.34688 133.175L4.32574 131.739L9.34513 130.305C10.6417 129.935 11.8224 129.24 12.7759 128.286C13.7294 127.333 14.4242 126.152 14.7948 124.855L16.2304 119.834L17.6643 124.854C18.0349 126.15 18.7297 127.331 19.6832 128.284C20.6367 129.238 21.8175 129.933 23.114 130.303L28.1351 131.739L23.1158 133.173C21.8192 133.543 20.6385 134.238 19.685 135.192C18.7315 136.145 18.0367 137.326 17.6661 138.623L17.6643 138.624ZM32.5602 125.945L32.1034 127.771L31.6466 125.945C31.3851 124.899 30.8442 123.943 30.0815 123.18C29.3189 122.417 28.3633 121.876 27.3168 121.614L25.4897 121.157L27.3168 120.7C28.3633 120.438 29.3189 119.897 30.0815 119.134C30.8442 118.371 31.3851 117.415 31.6466 116.369L32.1034 114.543L32.5602 116.369C32.8218 117.416 33.363 118.372 34.126 119.134C34.8889 119.897 35.8449 120.439 36.8917 120.7L38.7171 121.157L36.8917 121.614C35.8449 121.875 34.8889 122.417 34.126 123.18C33.363 123.943 32.8218 124.899 32.5602 125.945ZM30.1528 146.848L29.4579 148.935L28.763 146.848C28.5682 146.264 28.24 145.733 27.8044 145.297C27.3688 144.862 26.8377 144.533 26.2533 144.339L24.1669 143.644L26.2533 142.949C26.8377 142.754 27.3688 142.426 27.8044 141.99C28.24 141.555 28.5682 141.024 28.763 140.439L29.4579 138.353L30.1528 140.439C30.3476 141.024 30.6758 141.555 31.1114 141.99C31.547 142.426 32.078 142.754 32.6625 142.949L34.7489 143.644L32.6625 144.339C32.078 144.533 31.547 144.862 31.1114 145.297C30.6758 145.733 30.3476 146.264 30.1528 146.848Z" stroke="#919EAB" stroke-opacity="0.43" stroke-width="1.5" stroke-linecap="round" stroke-linejoin="round"/>
<mask id="mask0_106_276" style="mask-type:luminance" maskUnits="userSpaceOnUse" x="23" y="27" width="174" height="37">
<path d="M196.815 27.7789H23.1848V63.1961H196.815V27.7789Z" fill="white"/>
</mask>
<g mask="url(#mask0_106_276)">
<path d="M182.61 27.7789H37.0531C29.3938 27.7789 23.1848 33.973 23.1848 41.6138V49.3613C23.1848 57.002 29.3938 63.1961 37.0531 63.1961H182.61C190.27 63.1961 196.479 57.002 196.479 49.3613V41.6138C196.479 33.973 190.27 27.7789 182.61 27.7789Z" fill="#93C5FD"/>
<path d="M42.6004 36.6332H39.272C35.2892 36.6332 32.0605 39.8541 32.0605 43.8273V47.1476C32.0605 51.1208 35.2892 54.3418 39.272 54.3418H42.6004C46.5831 54.3418 49.8118 51.1208 49.8118 47.1476V43.8273C49.8118 39.8541 46.5831 36.6332 42.6004 36.6332Z" fill="#1E40AF"/>
<path d="M99.4602 38.0167H58.4101C56.7251 38.0167 55.3591 39.3794 55.3591 41.0604C55.3591 42.7414 56.7251 44.104 58.4101 44.104H99.4602C101.145 44.104 102.511 42.7414 102.511 41.0604C102.511 39.3794 101.145 38.0167 99.4602 38.0167Z" fill="#1E40AF"/>
<path d="M91.9713 48.5311H57.578C56.3526 48.5311 55.3591 49.5222 55.3591 50.7447C55.3591 51.9672 56.3526 52.9583 57.578 52.9583H91.9713C93.1968 52.9583 94.1902 51.9672 94.1902 50.7447C94.1902 49.5222 93.1968 48.5311 91.9713 48.5311Z" fill="#2563EB"/>
<path d="M184.611 41.4756H160.203C157.446 41.4756 155.211 43.2718 155.211 45.4877C155.211 47.7035 157.446 49.4998 160.203 49.4998H184.611C187.369 49.4998 189.604 47.7035 189.604 45.4877C189.604 43.2718 187.369 41.4756 184.611 41.4756Z" fill="#2563EB"/>
</g>
<mask id="mask1_106_276" style="mask-type:luminance" maskUnits="userSpaceOnUse" x="23" y="67" width="174" height="36">
<path d="M196.815 67.2334H23.1848V102.651H196.815V67.2334Z" fill="white"/>
</mask>
<g mask="url(#mask1_106_276)">
<path d="M182.61 67.2334H37.0531C29.3938 67.2334 23.1848 73.4275 23.1848 81.0682V88.8157C23.1848 96.4565 29.3938 102.651 37.0531 102.651H182.61C190.27 102.651 196.479 96.4565 196.479 88.8157V81.0682C196.479 73.4275 190.27 67.2334 182.61 67.2334Z" fill="#BDBDBD"/>
<path d="M42.6004 76.0876H39.272C35.2892 76.0876 32.0605 79.3086 32.0605 83.2818V86.6021C32.0605 90.5753 35.2892 93.7962 39.272 93.7962H42.6004C46.5831 93.7962 49.8118 90.5753 49.8118 86.6021V83.2818C49.8118 79.3086 46.5831 76.0876 42.6004 76.0876Z" fill="#21212F"/>
<path d="M99.4602 77.4712H58.4101C56.7251 77.4712 55.3591 78.8339 55.3591 80.5149C55.3591 82.1958 56.7251 83.5585 58.4101 83.5585H99.4602C101.145 83.5585 102.511 82.1958 102.511 80.5149C102.511 78.8339 101.145 77.4712 99.4602 77.4712Z" fill="#21212F"/>
<path d="M91.9713 87.9856H57.578C56.3526 87.9856 55.3591 88.9766 55.3591 90.1992C55.3591 91.4217 56.3526 92.4127 57.578 92.4127H91.9713C93.1968 92.4127 94.1902 91.4217 94.1902 90.1992C94.1902 88.9766 93.1968 87.9856 91.9713 87.9856Z" fill="#828282"/>
<path d="M184.611 80.9299H160.203C157.446 80.9299 155.211 82.7262 155.211 84.942C155.211 87.1579 157.446 88.9541 160.203 88.9541H184.611C187.369 88.9541 189.604 87.1579 189.604 84.942C189.604 82.7262 187.369 80.9299 184.611 80.9299Z" fill="#828282"/>
</g>
<mask id="mask2_106_276" style="mask-type:luminance" maskUnits="userSpaceOnUse" x="23" y="106" width="174" height="37">
<path d="M196.815 106.688H23.1848V142.105H196.815V106.688Z" fill="white"/>
</mask>
<g mask="url(#mask2_106_276)">
<path d="M182.61 106.688H37.0531C29.3938 106.688 23.1848 112.882 23.1848 120.523V128.27C23.1848 135.911 29.3938 142.105 37.0531 142.105H182.61C190.27 142.105 196.479 135.911 196.479 128.27V120.523C196.479 112.882 190.27 106.688 182.61 106.688Z" fill="#BDBDBD"/>
<path d="M42.6004 115.542H39.272C35.2892 115.542 32.0605 118.763 32.0605 122.736V126.056C32.0605 130.03 35.2892 133.251 39.272 133.251H42.6004C46.5831 133.251 49.8118 130.03 49.8118 126.056V122.736C49.8118 118.763 46.5831 115.542 42.6004 115.542Z" fill="#21212F"/>
<path d="M99.4602 116.926H58.4101C56.7251 116.926 55.3591 118.288 55.3591 119.969C55.3591 121.65 56.7251 123.013 58.4101 123.013H99.4602C101.145 123.013 102.511 121.65 102.511 119.969C102.511 118.288 101.145 116.926 99.4602 116.926Z" fill="#21212F"/>
<path d="M91.9713 127.44H57.578C56.3526 127.44 55.3591 128.431 55.3591 129.654C55.3591 130.876 56.3526 131.867 57.578 131.867H91.9713C93.1968 131.867 94.1902 130.876 94.1902 129.654C94.1902 128.431 93.1968 127.44 91.9713 127.44Z" fill="#828282"/>
<path d="M184.611 120.384H160.203C157.446 120.384 155.211 122.181 155.211 124.396C155.211 126.612 157.446 128.408 160.203 128.408H184.611C187.369 128.408 189.604 126.612 189.604 124.396C189.604 122.181 187.369 120.384 184.611 120.384Z" fill="#828282"/>
</g>
<path d="M190.302 32.7205L188.868 37.7399L187.435 32.7205C187.064 31.424 186.369 30.2433 185.416 29.2898C184.462 28.3362 183.281 27.6414 181.985 27.2708L176.964 25.8352L181.983 24.4013C183.28 24.0308 184.46 23.3359 185.414 22.3824C186.367 21.4289 187.062 20.2482 187.433 18.9516L188.868 13.9305L190.302 18.9499C190.673 20.2464 191.368 21.4271 192.321 22.3807C193.275 23.3342 194.455 24.029 195.752 24.3996L200.773 25.8352L195.754 27.2691C194.457 27.6397 193.277 28.3345 192.323 29.288C191.369 30.2415 190.675 31.4222 190.304 32.7188L190.302 32.7205ZM205.198 20.0416L204.741 21.867L204.285 20.0416C204.023 18.995 203.482 18.0392 202.72 17.2762C201.957 16.5133 201.001 15.9719 199.955 15.71L198.128 15.2532L199.955 14.7965C201.001 14.5346 201.957 13.9932 202.72 13.2303C203.482 12.4673 204.023 11.5115 204.285 10.4649L204.741 8.63953L205.198 10.4649C205.46 11.5117 206.001 12.4677 206.764 13.2307C207.527 13.9936 208.483 14.5349 209.53 14.7965L211.355 15.2532L209.53 15.71C208.483 15.9716 207.527 16.5129 206.764 17.2758C206.001 18.0388 205.46 18.9948 205.198 20.0416ZM202.791 40.9445L202.096 43.0309L201.401 40.9445C201.206 40.36 200.878 39.829 200.442 39.3934C200.007 38.9578 199.476 38.6296 198.891 38.4348L196.805 37.7399L198.891 37.045C199.476 36.8502 200.007 36.522 200.442 36.0864C200.878 35.6508 201.206 35.1198 201.401 34.5353L202.096 32.4489L202.791 34.5353C202.986 35.1198 203.314 35.6508 203.749 36.0864C204.185 36.522 204.716 36.8502 205.3 37.045L207.387 37.7399L205.3 38.4348C204.716 38.6296 204.185 38.9578 203.749 39.3934C203.314 39.829 202.986 40.36 202.791 40.9445Z" stroke="#919EAB" stroke-opacity="0.43" stroke-width="1.5" stroke-linecap="round" stroke-linejoin="round"/>
<path d="M196.453 1.86389V11.6266M201.334 6.74525H191.571" stroke="#1E40AF" stroke-width="2" stroke-linecap="round" stroke-linejoin="round"/>
</g>
</svg>
